HIERARCHY
ROOT hip
{
  OFFSET 0.0 0.0 0.0
  CHANNELS 6 Xposition Yposition Zposition Zrotation Yrotation Xrotation
  JOINT torso
  {
    OFFSET 0.0 0.0 0.0
    CHANNELS 3 Zrotation Xrotation Yrotation
    JOINT neck
    {
      OFFSET -8.600829999999974 327.7417449999999 60.895874000000276
      CHANNELS 3 Zrotation Xrotation Yrotation
      JOINT head
      {
        OFFSET 0.7211610000001087 266.848846 239.12060599999995
        CHANNELS 3 Zrotation Xrotation Yrotation
        End Site
        {
          OFFSET 0.0 0.0 0.0
        }
      }
    }
    JOINT left_collar
    {
      OFFSET -8.600829999999974 327.7417449999999 60.895874000000276
      CHANNELS 3 Zrotation Xrotation Yrotation
      JOINT left_upper_arm
      {
        OFFSET -122.29599000000002 -5.21875 31.800903999999946
        CHANNELS 3 Zrotation Xrotation Yrotation
        JOINT left_forearm
        {
          OFFSET -195.94708199999997 63.423126000000025 226.99352999999996
          CHANNELS 3 Zrotation Xrotation Yrotation
          JOINT left_hand
          {
            OFFSET -232.19226099999992 28.282164999999964 80.86950699999989
            CHANNELS 3 Zrotation Xrotation Yrotation
            End Site
            {
              OFFSET 0.0 0.0 0.0
            }
          }
        }
      }
    }
    JOINT right_collar
    {
      OFFSET -8.600829999999974 327.7417449999999 60.895874000000276
      CHANNELS 3 Zrotation Xrotation Yrotation
      JOINT right_upper_arm
      {
        OFFSET 168.41261300000002 -11.913361000000066 -9.389160000000174
        CHANNELS 3 Zrotation Xrotation Yrotation
        JOINT right_forearm
        {
          OFFSET 213.49279800000005 104.82293699999997 83.52258300000017
          CHANNELS 3 Zrotation Xrotation Yrotation
          JOINT right_hand
          {
            OFFSET 222.067185 62.005675999999994 -110.52026300000034
            CHANNELS 3 Zrotation Xrotation Yrotation
            End Site
            {
              OFFSET 0.0 0.0 0.0
            }
          }
        }
      }
    }
  }
}
MOTION
Frames: 9
Frame Time: 0.01
-370.3043598076341 108.70696569743372 1327.035932541501 6.5771990663967 -22.16858679916374 -15.285884160957698 -2.3737898382696887 9.992391486691725 0.5043827230724169 -6.096077875088825 2.953289229724363 5.424642971831929 0.0 0.0 0.0 0.07059073542347055 -0.13732187835731996 3.6210186473307524 57.43133602756842 44.4387536610264 24.861533564765672 37.19513115844682 12.533058852683888 1.3068028039031738 0.0 0.0 0.0 -7.316797221636395 -0.45762377614167515 -0.3490201037345333 -72.93371617275527 19.91647512037462 -17.88681235519238 -34.70397915175757 -17.078709169846572 -8.206178777765901 0.0 0.0 0.0
-370.46114406212905 108.5854495602979 1325.8322382380413 6.6391511911326075 -22.222798782150225 -15.322018365744794 -2.397010141107575 10.021949128903604 0.5068877576568699 -6.101394381810024 2.9585113168602764 5.429311480836309 0.0 0.0 0.0 0.015124147128171396 -0.14791022808693602 3.574169069020331 57.394930880431424 44.415377407908224 24.862818959526276 37.191298446584184 12.539931541252473 1.2726114641186457 0.0 0.0 0.0 -7.277832021982042 -0.45379251904163087 -0.33785733380543753 -72.94048952919097 19.895979622639864 -17.98426728746219 -34.76209271257774 -17.104390581065303 -8.150920613604104 0.0 0.0 0.0
-370.61643046551393 108.46083839529295 1324.6097203012396 6.701672449045282 -22.277991137787374 -15.36019598123976 -2.420172654224556 10.052542611128924 0.5093813327491561 -6.107052500030077 2.963857975007056 5.43428277070263 0.0 0.0 0.0 -0.040261875168117994 -0.1585727263478577 3.5284134208557862 57.35828193239983 44.39201771408376 24.86371846172567 37.186261904775655 12.54681510705954 1.2366528873041376 0.0 0.0 0.0 -7.2389627420717915 -0.44989228258232494 -0.32608152057703177 -72.94754481355866 19.875870241638903 -18.080134521624363 -34.81819574001699 -17.129205174839303 -8.098421046304113 0.0 0.0 0.0
-370.76785024472264 108.32994510029945 1323.3574474002992 6.764944308970195 -22.33440997796478 -15.400843860857858 -2.4432569510259636 10.084072341518539 0.51186025385309 -6.1130720979327755 2.9697494181023787 5.439568731322027 0.0 0.0 0.0 -0.09491478628452678 -0.16917609041334897 3.484166168625773 57.32091226748913 44.3689585752003 24.86289579807799 37.17918929435243 12.553728336674324 1.197654662975734 0.0 0.0 0.0 -7.200707423129785 -0.4459925162533378 -0.3139762387402022 -72.95476879375124 19.85640506982677 -18.17316608549018 -34.87150074760454 -17.15278537171846 -8.049136141850664 0.0 0.0 0.0
-370.9130309988426 108.18947206300041 1322.0634530267967 6.82913522850788 -22.392301995795524 -15.444339910617837 -2.466246738276987 10.116411737960936 0.5143216876872873 -6.119433826020753 2.976589648142877 5.4451464861559105 0.0 0.0 0.0 -0.14820802893039045 -0.1795882561991638 3.4417707388590366 57.282457317004464 44.346524941572135 24.859078191624146 37.16918278472748 12.560641742762222 1.1544457783625912 0.0 0.0 0.0 -7.163552478269502 -0.44216371745030303 -0.3018515260755259 -72.96204061820268 19.83781984406256 -18.26221236874416 -34.92133361454241 -17.174813475124044 -8.003394729860943 0.0 0.0 0.0
-371.0496529827822 108.0360971540335 1320.7150972566264 6.894385013030426 -22.451901234292787 -15.490985245911396 -2.4891277591174963 10.149403673768116 0.5167629579712804 -6.126072870809703 2.9847516662301152 5.450953027764595 0.0 0.0 0.0 -0.19955612019812247 -0.18968152988011638 3.401483428795158 57.242694285078564 44.325081823586444 24.851100821021323 37.155308526179944 12.567474975245867 1.1060071425511153 0.0 0.0 0.0 -7.127938936711394 -0.4384762311139016 -0.2900410612683229 -72.96923292496919 19.82032069426265 -18.346255681350563 -34.967161217957596 -17.195033528684345 -7.9613796775666845 0.0 0.0 0.0
-371.1755052364992 107.86655256744228 1319.2994407917517 6.960791203149526 -22.513416898600685 -15.540977277196689 -2.5118861622316584 10.182857306512958 0.5191813958715142 -6.1328744770118835 2.9945651681298475 5.456881398900866 0.0 0.0 0.0 -0.24842795405145998 -0.19933553136466467 3.3634601150523142 57.20156327071611 44.30503132082409 24.83794439900174 37.136630722445055 12.574098200479638 1.051511735792041 0.0 0.0 0.0 -7.094251013954115 -0.4349993269628477 -0.2789000568053653 -72.97621270712548 19.804077999826834 -18.424438463029077 -35.00861424143642 -17.213260928331334 -7.923112594949414 0.0 0.0 0.0
-371.2885403166897 107.67769285974748 1317.8036164818443 7.028398262687635 -22.577022848500796 -15.594384760201372 -2.5345074833194765 10.216545487647227 0.5215742590407618 -6.139671587411909 3.006307421137646 5.4627787219179575 0.0 0.0 0.0 -0.29435785932734043 -0.20843980694509062 3.3277464401614636 57.15917865431415 44.286807541865315 24.818763969124365 37.11224927230856 12.580337806727304 0.9903519738941445 0.0 0.0 0.0 -7.0628075848124325 -0.43180060395765724 -0.2688040342421697 -72.98284194564465 19.789221656010398 -18.496084806424207 -35.04550392672479 -17.22938930948985 -7.8884427378927855 0.0 0.0 0.0
-371.3869265582992 107.46654917313171 1316.2151837884342 7.097190151439656 -22.642849300612987 -15.651125755616285 -2.5569763371632495 10.250202969292062 0.5239387277576295 -6.146244835314377 3.020197781146411 5.468446280134687 0.0 0.0 0.0 -0.33695409058663883 -0.21689600844227627 3.2942719160817386 57.1158299127719 44.27086949031031 24.79290758075663 37.08133978257163 12.58598655366246 0.9221525874920485 0.0 0.0 0.0 -7.033856976258542 -0.42894574079272346 -0.260148511471775 -72.98897804552352 19.775837983907255 -18.560714294973767 -35.07783175159783 -17.243394324633446 -7.857040853672213 0.0 0.0 0.0
